<svg xmlns="http://www.w3.org/2000/svg" xmlns:xlink="http://www.w3.org/1999/xlink" width="500" zoomAndPan="magnify" viewBox="0 0 375 374.999991" height="500" preserveAspectRatio="xMidYMid meet" version="1.0"><defs><clipPath id="dd7541006f"><path d="M 7.15625 136.21875 L 352.90625 136.21875 L 352.90625 346.96875 L 7.15625 346.96875 Z M 7.15625 136.21875 " clip-rule="nonzero"/></clipPath><clipPath id="60f7372b17"><path d="M 108.492188 126 L 214 126 L 214 321.109375 L 108.492188 321.109375 Z M 108.492188 126 " clip-rule="nonzero"/></clipPath><clipPath id="a611d389f3"><path d="M 108.492188 116 L 189 116 L 189 321.109375 L 108.492188 321.109375 Z M 108.492188 116 " clip-rule="nonzero"/></clipPath><clipPath id="24f6468246"><path d="M 122 8.359375 L 255 8.359375 L 255 185 L 122 185 Z M 122 8.359375 " clip-rule="nonzero"/></clipPath><clipPath id="a5381fcb2a"><path d="M 108.492188 281 L 146 281 L 146 321.109375 L 108.492188 321.109375 Z M 108.492188 281 " clip-rule="nonzero"/></clipPath></defs><g clip-path="url(#dd7541006f)"><path fill="#ff914d" d="M 45.53125 328.449219 C 44.207031 329.769531 43.074219 330.335938 41.371094 329.015625 C 40.992188 328.640625 40.425781 328.640625 39.671875 328.449219 C 39.859375 328.074219 40.238281 327.507812 40.617188 326.753906 C 39.859375 326.566406 38.726562 326.566406 38.347656 326 C 37.96875 325.433594 38.347656 324.492188 38.535156 323.171875 C 37.78125 323.359375 36.835938 323.359375 36.078125 323.546875 L 34.945312 321.285156 C 35.324219 321.285156 35.890625 321.09375 36.457031 321.09375 L 36.457031 320.71875 C 35.890625 320.53125 35.132812 320.339844 35.132812 320.339844 C 34.566406 319.585938 34.378906 319.210938 34 319.019531 C 33.621094 318.832031 33.242188 318.644531 33.054688 318.453125 C 32.488281 318.078125 32.109375 317.699219 31.542969 317.132812 C 32.296875 316.757812 32.867188 316.570312 33.621094 316.191406 C 34 316.003906 34.566406 316.003906 34.945312 315.8125 C 34.566406 315.4375 34.1875 315.25 33.808594 314.871094 C 33.433594 314.492188 33.054688 313.929688 32.867188 313.363281 C 32.488281 312.042969 32.296875 310.722656 31.921875 309.402344 C 31.542969 308.648438 30.785156 307.890625 30.21875 307.136719 C 30.03125 306.949219 29.460938 306.761719 29.273438 306.570312 C 28.515625 305.253906 28.328125 303.175781 27.382812 302.421875 C 25.492188 300.914062 27.382812 298.839844 25.871094 297.519531 C 25.492188 297.140625 24.925781 296.574219 24.925781 296.011719 C 24.925781 294.691406 22.46875 294.125 23.980469 292.425781 C 24.167969 292.238281 23.222656 290.351562 22.46875 289.785156 C 20.011719 287.898438 20.578125 284.691406 19.066406 282.429688 C 18.875 282.054688 19.445312 281.296875 19.445312 280.734375 C 16.984375 279.222656 16.417969 276.960938 17.742188 274.695312 C 16.796875 273.941406 15.851562 273.375 15.097656 272.621094 L 14.527344 272.054688 C 18.121094 271.300781 16.984375 268.285156 17.554688 266.019531 C 16.796875 265.644531 16.230469 265.453125 15.285156 265.078125 C 15.664062 264.699219 16.039062 264.511719 16.417969 264.132812 C 15.097656 262.8125 11.125 262.4375 14.71875 259.042969 C 13.582031 258.664062 12.636719 258.289062 11.316406 257.910156 C 12.070312 257.34375 12.636719 256.96875 13.207031 256.589844 C 12.636719 256.214844 11.882812 256.023438 11.125 255.457031 C 10.371094 254.515625 13.207031 252.253906 10.179688 251.121094 L 10.179688 248.292969 C 10.371094 248.101562 10.9375 247.726562 11.691406 247.347656 C 10.746094 247.160156 10.179688 246.972656 9.992188 246.972656 C 9.613281 245.085938 9.234375 243.386719 8.859375 241.878906 C 8.480469 241.878906 8.289062 241.691406 7.914062 241.691406 C 8.480469 241.5 8.859375 241.3125 9.425781 241.125 C 9.425781 240.933594 9.234375 240.746094 9.234375 240.558594 C 8.480469 240.179688 7.914062 239.992188 7.15625 239.617188 C 7.15625 239.425781 7.15625 238.859375 7.34375 238.484375 C 7.914062 238.484375 8.667969 238.671875 9.234375 238.671875 C 15.851562 233.203125 19.632812 231.503906 29.273438 229.242188 C 34.566406 227.921875 39.671875 226.222656 44.773438 224.714844 C 46.285156 224.148438 47.988281 223.582031 49.3125 222.640625 C 50.066406 222.074219 50.257812 220.753906 50.445312 219.621094 C 50.445312 219.058594 49.691406 218.300781 48.933594 218.113281 C 47.230469 217.359375 47.421875 216.039062 47.609375 214.90625 C 46.855469 214.152344 46.097656 213.585938 45.339844 212.832031 C 45.910156 212.078125 46.285156 211.511719 46.664062 210.945312 C 43.640625 211.511719 44.585938 208.871094 44.207031 207.738281 C 43.261719 205.476562 43.074219 203.214844 42.507812 200.761719 C 42.695312 200.761719 43.074219 200.761719 43.453125 200.949219 C 42.507812 198.121094 41.75 195.480469 40.804688 192.652344 C 40.992188 192.652344 41.183594 192.460938 41.371094 192.460938 C 40.804688 191.898438 40.046875 191.519531 39.292969 190.765625 C 40.617188 189.257812 42.128906 188.125 42.316406 186.050781 C 42.507812 183.597656 45.152344 182.84375 47.230469 181.898438 C 52.902344 179.636719 58.761719 177.5625 64.433594 175.109375 C 68.027344 173.601562 71.429688 171.714844 75.019531 170.207031 C 78.421875 168.699219 81.824219 167.1875 85.417969 165.867188 C 88.820312 164.546875 92.414062 163.417969 95.816406 162.472656 C 98.839844 161.71875 102.054688 161.339844 105.078125 160.585938 C 106.402344 160.398438 107.535156 159.644531 108.667969 159.265625 C 114.71875 157.570312 120.769531 156.058594 126.628906 154.363281 C 131.730469 153.042969 136.648438 151.535156 141.75 150.96875 C 143.832031 150.78125 145.910156 148.515625 148.179688 150.402344 C 148.367188 150.589844 149.125 149.835938 149.691406 149.835938 C 150.636719 149.648438 151.390625 149.835938 152.335938 149.835938 C 151.769531 147.007812 154.605469 148.515625 155.550781 148.328125 C 158.765625 147.382812 162.355469 146.820312 165.757812 146.628906 C 173.320312 146.0625 180.503906 143.613281 187.875 143.234375 C 192.222656 142.859375 196.570312 141.914062 200.917969 141.347656 C 201.296875 141.347656 203 140.21875 202.242188 141.914062 C 207.914062 139.460938 214.152344 140.027344 220.203125 139.085938 C 220.203125 139.839844 220.203125 140.21875 220.011719 140.78125 C 220.390625 140.59375 220.957031 140.40625 220.957031 140.40625 C 220.390625 138.707031 221.523438 138.707031 222.660156 138.519531 C 225.496094 138.332031 228.519531 138.140625 231.355469 137.953125 C 234.570312 137.765625 237.59375 137.386719 240.808594 137.199219 C 241.375 137.199219 241.941406 137.386719 242.507812 137.578125 C 243.265625 137.953125 243.640625 137.953125 244.585938 137.386719 C 245.53125 136.632812 247.421875 136.820312 248.746094 136.820312 C 254.605469 136.632812 260.464844 136.445312 266.328125 136.445312 C 270.484375 136.445312 274.457031 136.820312 278.613281 137.011719 C 280.695312 137.199219 282.773438 137.386719 284.851562 137.386719 C 286.554688 137.386719 290.710938 140.78125 290.144531 142.101562 C 289.390625 143.800781 291.28125 145.121094 290.335938 146.628906 C 290.335938 146.628906 290.902344 147.007812 291.28125 147.195312 C 290.335938 148.328125 290.523438 148.894531 291.65625 152.664062 C 292.226562 154.550781 292.226562 156.816406 292.226562 158.890625 C 292.414062 159.644531 292.414062 160.398438 292.601562 161.339844 C 292.980469 163.226562 293.359375 165.113281 293.738281 167.1875 C 292.792969 167.378906 291.847656 167.378906 290.710938 167.566406 C 292.601562 169.074219 294.117188 170.960938 292.035156 173.789062 L 292.980469 173.789062 C 291.847656 175.863281 290.710938 178.128906 289.957031 179.824219 C 291.65625 181.523438 293.171875 183.21875 294.871094 184.730469 C 295.25 185.105469 296.003906 185.671875 296.195312 185.484375 C 298.839844 184.164062 299.976562 186.617188 301.488281 187.558594 C 302.621094 188.3125 305.269531 188.878906 303.757812 191.519531 C 303.757812 191.519531 304.890625 192.460938 305.457031 192.652344 C 306.59375 192.839844 307.726562 192.652344 309.238281 192.460938 L 309.238281 210.378906 L 309.617188 210.378906 C 309.425781 210.757812 309.238281 211.324219 309.238281 211.511719 C 310.371094 213.777344 309.617188 215.472656 307.160156 216.226562 C 306.96875 216.226562 306.78125 216.605469 306.59375 216.792969 C 306.59375 216.980469 306.59375 217.359375 306.78125 217.359375 L 307.726562 217.359375 L 309.996094 216.226562 L 310.371094 216.605469 C 309.996094 217.171875 309.617188 217.738281 309.238281 218.492188 C 309.804688 219.054688 310.371094 219.621094 311.316406 220.375 C 310.941406 220.753906 310.371094 221.132812 310.183594 221.695312 C 309.996094 222.261719 308.671875 222.828125 310.183594 223.582031 C 310.5625 223.773438 310.5625 225.09375 310.75 226.035156 C 307.914062 224.714844 308.105469 227.921875 306.402344 228.675781 C 306.214844 228.296875 305.835938 227.734375 305.457031 226.976562 C 305.269531 227.734375 305.078125 228.296875 305.078125 228.488281 C 304.511719 228.488281 303.378906 228.296875 303.1875 228.488281 C 302.8125 229.617188 302.242188 230.9375 302.621094 231.882812 C 302.8125 232.636719 304.132812 233.578125 305.078125 233.578125 C 307.726562 234.144531 310.371094 234.335938 313.019531 234.523438 C 314.53125 234.710938 316.042969 234.335938 317.554688 234.335938 C 319.636719 234.523438 321.527344 234.898438 323.605469 235.089844 C 324.363281 235.089844 325.304688 234.710938 326.0625 234.710938 C 328.140625 234.898438 330.410156 235.089844 332.488281 235.464844 C 332.867188 235.464844 333.246094 236.03125 333.433594 236.21875 C 334.757812 236.410156 336.082031 236.785156 337.214844 236.597656 C 339.863281 236.03125 341.1875 236.976562 342.886719 238.859375 C 343.453125 239.617188 345.535156 239.425781 346.667969 239.238281 C 349.691406 238.859375 348.746094 241.3125 349.503906 242.632812 C 349.882812 243.199219 349.882812 243.953125 349.882812 244.519531 C 350.257812 246.027344 350.070312 247.347656 347.800781 248.101562 C 348.558594 248.855469 349.3125 249.234375 349.882812 249.988281 C 350.257812 250.367188 350.257812 250.933594 350.257812 251.496094 C 350.257812 252.253906 349.882812 253.195312 350.257812 253.574219 C 351.582031 254.703125 350.828125 255.457031 350.070312 256.023438 C 350.449219 256.96875 351.203125 257.722656 351.203125 258.476562 C 351.203125 259.796875 350.257812 261.117188 351.773438 262.058594 L 351.773438 262.25 C 349.691406 264.890625 352.339844 267.339844 351.773438 269.980469 C 351.773438 270.359375 351.773438 271.113281 352.148438 271.492188 C 353.285156 272.433594 352.71875 273.375 352.339844 274.507812 C 351.582031 276.207031 350.828125 277.902344 350.257812 279.222656 C 349.125 279.035156 347.800781 278.65625 346.480469 278.847656 C 345.15625 278.847656 344.019531 279.222656 342.699219 279.414062 C 343.074219 280.542969 344.777344 281.296875 342.886719 282.808594 C 342.320312 283.183594 342.699219 284.882812 342.886719 285.824219 C 343.074219 287.144531 343.644531 288.652344 343.453125 289.972656 C 343.453125 290.539062 342.132812 291.105469 341.1875 291.484375 C 339.484375 292.425781 336.648438 292.050781 337.027344 295.253906 C 335.703125 295.445312 334.003906 295.253906 335.703125 297.332031 C 336.460938 298.273438 334.949219 299.59375 332.867188 299.78125 C 330.601562 299.972656 328.332031 300.535156 326.0625 300.914062 C 323.984375 301.292969 321.902344 301.667969 319.824219 301.855469 C 319.257812 301.855469 318.5 301.292969 317.746094 301.101562 C 317.179688 301.292969 316.234375 301.667969 315.289062 302.046875 C 314.71875 300.914062 314.34375 300.160156 314.152344 299.214844 C 313.964844 299.214844 313.773438 299.214844 313.773438 299.40625 L 313.773438 302.046875 C 312.261719 298.839844 310.183594 302.046875 308.671875 301.480469 C 309.050781 301.855469 309.238281 302.234375 309.617188 302.800781 C 308.671875 303.175781 307.914062 303.367188 307.160156 303.554688 L 307.160156 305.816406 C 305.835938 306.949219 304.890625 307.703125 303.945312 308.648438 C 304.703125 308.835938 305.457031 309.210938 306.589844 309.589844 C 304.324219 310.15625 302.621094 311.476562 300.355469 310.910156 C 299.785156 310.722656 299.03125 311.476562 298.464844 311.851562 C 297.328125 313.171875 296.195312 314.117188 294.871094 312.796875 C 293.925781 314.492188 293.171875 316.003906 292.414062 317.511719 C 292.414062 316.757812 292.226562 316.191406 292.226562 315.4375 C 291.46875 315.625 290.710938 315.625 289.957031 315.8125 C 290.144531 316.945312 290.335938 317.511719 290.523438 318.453125 C 291.28125 318.078125 291.847656 317.699219 292.414062 317.324219 C 293.359375 319.585938 293.925781 319.773438 296.574219 318.453125 C 296.949219 319.210938 297.328125 319.964844 297.707031 320.90625 C 295.628906 321.285156 293.546875 321.660156 291.28125 322.226562 C 292.601562 323.925781 289.578125 326.375 292.601562 326.941406 C 291.847656 327.695312 291.28125 328.828125 290.335938 329.394531 C 289.011719 330.148438 287.5 330.335938 285.988281 330.714844 C 283.90625 331.089844 281.640625 331.46875 279.558594 331.65625 C 276.722656 331.847656 273.886719 332.035156 271.242188 332.222656 C 269.164062 332.410156 267.273438 332.976562 265.382812 333.167969 C 263.871094 333.355469 262.167969 332.976562 260.65625 333.167969 C 258.199219 333.542969 255.929688 334.488281 253.472656 335.050781 C 252.90625 335.242188 252.148438 335.242188 251.582031 335.242188 C 250.636719 335.242188 249.691406 334.296875 249.125 335.808594 C 246.855469 334.296875 244.964844 337.882812 242.695312 336.183594 C 242.507812 335.996094 241.941406 336.5625 241.5625 336.75 L 240.429688 337.316406 C 235.136719 338.257812 229.84375 339.011719 224.550781 339.769531 C 221.902344 340.144531 219.257812 340.144531 216.609375 340.332031 C 214.910156 340.523438 213.207031 341.089844 211.503906 341.277344 C 210.371094 341.464844 209.238281 341.277344 207.726562 341.089844 C 207.15625 342.597656 206.210938 342.410156 205.269531 341.089844 C 203.378906 342.03125 201.488281 342.972656 199.21875 342.410156 C 198.460938 342.21875 197.328125 342.785156 196.382812 342.785156 C 195.625 342.785156 194.871094 342.597656 194.113281 342.21875 C 193.359375 341.84375 192.414062 340.710938 192.222656 342.785156 C 192.222656 342.972656 190.332031 343.164062 189.199219 343.351562 C 186.929688 343.730469 184.472656 343.917969 182.015625 344.292969 C 182.394531 343.539062 182.582031 342.972656 182.773438 342.410156 L 182.582031 342.21875 L 179.746094 344.484375 C 178.234375 345.804688 176.34375 345.613281 174.453125 345.613281 C 172.753906 345.613281 170.863281 345.425781 169.539062 345.992188 C 168.027344 346.558594 168.214844 346.933594 167.269531 345.613281 C 166.515625 347.125 163.113281 347.878906 162.167969 346.933594 C 162.734375 346.558594 163.300781 346.371094 163.867188 345.992188 C 163.679688 345.804688 163.679688 345.613281 163.492188 345.425781 C 163.113281 345.613281 162.921875 345.804688 162.546875 345.992188 C 160.277344 347.3125 157.820312 346.933594 155.550781 347.125 C 153.660156 347.3125 151.769531 346.558594 149.691406 346.179688 L 149.691406 344.484375 C 149.691406 342.03125 148.367188 340.710938 146.097656 340.523438 C 145.34375 340.523438 144.019531 340.710938 144.207031 338.824219 C 144.398438 337.503906 142.507812 336.75 140.804688 337.128906 C 139.484375 337.503906 137.96875 337.316406 136.648438 337.316406 C 136.457031 337.128906 136.078125 336.9375 135.703125 336.9375 C 134.1875 337.128906 132.867188 337.503906 131.355469 337.503906 C 128.328125 337.882812 125.492188 338.070312 122.46875 338.449219 C 121.714844 338.449219 120.957031 338.257812 119.824219 338.257812 C 120.578125 337.691406 121.144531 337.316406 121.714844 336.9375 C 116.796875 337.882812 115.285156 334.863281 114.339844 331.28125 C 114.53125 331.28125 114.90625 331.089844 115.285156 331.089844 C 111.316406 330.527344 110.9375 327.320312 109.992188 324.300781 C 109.425781 324.113281 108.292969 323.734375 107.535156 323.359375 C 107.914062 322.792969 108.480469 322.039062 108.859375 321.472656 C 108.101562 321.285156 107.15625 320.90625 106.402344 320.90625 C 103.753906 321.285156 101.484375 320.90625 99.785156 318.644531 C 102.242188 319.019531 104.511719 319.398438 106.96875 319.773438 C 107.347656 318.453125 107.535156 317.699219 107.722656 316.757812 C 106.023438 317.890625 106.023438 317.890625 104.699219 316.757812 C 104.132812 316.378906 103.566406 316.003906 103.1875 315.8125 C 102.054688 317.699219 100.164062 316.191406 98.460938 316.945312 C 99.027344 317.699219 99.40625 318.265625 99.785156 318.832031 C 98.839844 318.265625 96.949219 319.585938 97.328125 317.324219 C 95.816406 317.699219 94.300781 318.078125 92.980469 318.644531 C 92.222656 319.019531 91.84375 319.964844 91.277344 320.71875 L 91.277344 319.585938 C 90.898438 319.585938 90.523438 319.585938 90.332031 319.773438 C 88.0625 320.90625 85.605469 322.226562 83.339844 323.359375 C 82.769531 322.605469 82.582031 322.039062 82.394531 322.039062 C 81.070312 322.792969 79.746094 323.925781 78.613281 323.734375 C 77.476562 323.734375 76.15625 322.414062 75.019531 321.851562 C 75.019531 322.792969 74.832031 323.734375 74.832031 324.679688 C 72.5625 322.792969 72.183594 322.980469 70.863281 326.375 C 72.183594 326.375 73.507812 326.1875 75.019531 326.1875 L 75.019531 324.867188 C 75.585938 325.433594 76.15625 325.8125 76.722656 326.375 C 76.722656 326.753906 76.53125 327.695312 76.53125 327.695312 C 74.640625 327.695312 73.128906 330.148438 70.863281 328.640625 C 70.484375 328.453125 69.726562 329.015625 69.160156 329.015625 L 68.027344 329.015625 C 62.921875 331.28125 57.441406 331.46875 51.957031 332.789062 C 51.769531 330.714844 50.636719 330.902344 49.121094 331.28125 C 48.746094 331.46875 47.988281 330.902344 47.421875 330.902344 C 47.800781 330.902344 48.175781 330.714844 48.367188 330.714844 C 48.746094 329.960938 49.121094 329.015625 49.3125 328.453125 C 48.746094 328.261719 47.988281 327.695312 47.230469 327.695312 C 46.664062 327.695312 46.097656 328.261719 45.53125 328.453125 C 45.910156 327.886719 45.71875 328.261719 45.53125 328.453125 Z M 243.265625 332.222656 C 240.808594 332.601562 238.726562 332.976562 236.457031 333.355469 L 236.457031 334.296875 C 237.59375 334.488281 238.917969 334.863281 240.050781 334.675781 C 241.183594 334.675781 242.886719 334.675781 243.265625 332.222656 Z M 70.292969 326.566406 C 69.347656 325.433594 68.972656 324.300781 67.648438 325.433594 C 67.082031 326 66.136719 326 65.378906 326.375 C 65 326.566406 64.625 326.753906 64.246094 327.132812 L 64.433594 327.695312 C 64.8125 327.695312 65.191406 327.507812 65.757812 327.320312 C 66.324219 327.132812 66.890625 327.132812 67.460938 327.132812 C 68.027344 326.941406 68.972656 326.753906 70.292969 326.566406 Z M 134.566406 332.410156 C 135.511719 333.542969 136.269531 334.488281 137.023438 335.429688 C 137.402344 334.488281 137.96875 333.542969 138.160156 332.789062 C 137.023438 332.410156 135.890625 332.410156 134.566406 332.410156 Z M 75.964844 316.003906 C 74.832031 319.019531 75.585938 320.152344 77.667969 319.964844 C 77.101562 318.832031 76.53125 317.699219 75.964844 316.003906 Z M 75.964844 316.003906 " fill-opacity="1" fill-rule="nonzero"/></g><path fill="#ff914d" d="M 77.101562 325.621094 C 76.910156 325.246094 76.910156 324.867188 76.722656 324.113281 C 78.800781 325.621094 80.3125 324.113281 82.015625 323.734375 C 83.714844 323.359375 85.605469 324.113281 87.308594 324.300781 L 87.308594 324.113281 C 86.929688 326 85.417969 325.433594 84.09375 325.621094 C 82.960938 325.8125 81.449219 325.433594 80.691406 326 C 78.992188 327.507812 78.046875 326.753906 77.101562 325.621094 Z M 77.101562 325.621094 " fill-opacity="1" fill-rule="nonzero"/><path fill="#ff914d" d="M 87.308594 324.300781 C 87.875 323.925781 88.441406 323.171875 89.199219 322.605469 C 89.953125 322.039062 90.710938 321.660156 91.46875 321.09375 C 91.65625 321.285156 91.84375 321.660156 92.222656 321.851562 L 94.492188 322.414062 C 91.84375 322.980469 89.578125 323.546875 87.308594 324.300781 Z M 87.308594 324.300781 " fill-opacity="1" fill-rule="nonzero"/><path fill="#ff914d" d="M 45.53125 328.449219 C 45.71875 328.261719 45.910156 327.886719 46.097656 327.695312 C 48.367188 326.753906 47.800781 329.207031 48.933594 329.960938 C 48.554688 329.960938 48.175781 330.148438 47.988281 330.148438 C 47.421875 330.335938 46.476562 330.714844 46.097656 330.527344 C 45.71875 329.960938 45.71875 329.207031 45.53125 328.449219 Z M 45.53125 328.449219 " fill-opacity="1" fill-rule="nonzero"/><path fill="#ff914d" d="M 94.300781 322.414062 C 93.925781 320.53125 95.816406 320.71875 96.570312 320.339844 C 97.136719 320.152344 98.082031 320.53125 99.21875 320.71875 C 97.515625 322.605469 96.003906 323.171875 94.300781 322.414062 Z M 94.300781 322.414062 " fill-opacity="1" fill-rule="nonzero"/><g clip-path="url(#60f7372b17)"><path stroke-linecap="butt" transform="matrix(0.749432, 0, 0, 0.748998, 108.717338, 14.036172)" fill="none" stroke-linejoin="miter" d="M 21.674541 387.401793 C 26.204012 390.630065 38.765605 383.688497 71.509144 294.517243 C 104.638391 195.290885 96.350867 196.401745 96.705302 193.293424 " stroke="#000000" stroke-width="7.581" stroke-opacity="1" stroke-miterlimit="4"/></g><g clip-path="url(#a611d389f3)"><path stroke-linecap="butt" transform="matrix(0.749432, 0, 0, 0.748998, 108.717338, 14.036172)" fill="none" stroke-linejoin="miter" d="M 9.331864 385.211365 C 3.770362 385.049691 -3.578952 376.486163 20.866638 279.690136 C 41.595873 212.449233 54.934096 183.984108 63.503083 179.040001 " stroke="#000000" stroke-width="7.581" stroke-opacity="1" stroke-miterlimit="4"/></g><path stroke-linecap="butt" transform="matrix(0.749432, 0, 0, 0.748998, 108.717338, 14.036172)" fill="none" stroke-linejoin="miter" d="M 61.100222 188.171997 C 50.441111 185.486116 55.215559 168.364275 65.608844 168.927528 " stroke="#000000" stroke-width="7.581" stroke-opacity="1" stroke-miterlimit="4"/><path stroke-linecap="butt" transform="matrix(0.749432, 0, 0, 0.748998, 108.717338, 14.036172)" fill-opacity="1" fill="#ffffff" fill-rule="evenodd" stroke-linejoin="miter" d="M 62.69518 183.180952 C 40.282379 218.264296 6.220133 327.358007 7.726482 380.272473 C 7.121857 382.561991 23.905397 387.474807 24.817546 385.779833 C 55.252045 342.805735 90.612148 235.568672 95.662846 193.601127 C 79.39011 182.920186 62.69518 183.175736 62.69518 183.175736 Z M 62.69518 183.180952 " stroke="#000000" stroke-width="0.758" stroke-opacity="1" stroke-miterlimit="4"/><path stroke-linecap="butt" transform="matrix(0.749432, 0, 0, 0.748998, 108.717338, 14.036172)" fill="none" stroke-linejoin="miter" d="M 95.725394 198.47222 C 102.725485 199.557003 110.429234 190.341563 101.756001 179.832727 " stroke="#000000" stroke-width="7.581" stroke-opacity="1" stroke-miterlimit="4"/><g clip-path="url(#24f6468246)"><path stroke-linecap="butt" transform="matrix(0.749432, 0, 0, 0.748998, 108.717338, 14.036172)" fill="none" stroke-linejoin="miter" d="M 60.641542 170.622502 C 61.063736 139.909581 81.063252 89.295064 83.773637 81.22699 C 86.484023 73.153701 118.044374 -2.103124 138.737123 4.160455 C 159.424659 10.424034 154.493843 53.35641 134.681969 113.702683 C 114.864883 174.04374 103.502115 184.114491 103.502115 184.114491 " stroke="#000000" stroke-width="7.581" stroke-opacity="1" stroke-miterlimit="4"/></g><path stroke-linecap="butt" transform="matrix(0.749432, 0, 0, 0.748998, 108.717338, 14.036172)" fill-opacity="1" fill="#ffffff" fill-rule="evenodd" stroke-linejoin="miter" d="M 138.330565 8.03021 C 111.659332 0.285485 65.113677 124.263672 64.253651 170.492119 C 62.62742 176.906942 73.025917 176.18723 83.685029 178.935695 C 94.636027 181.78325 100.369535 188.396255 101.855034 182.508177 C 128.807731 137.635709 166.508147 17.099623 138.330565 8.024995 Z M 138.330565 8.03021 " stroke="#000000" stroke-width="0.758" stroke-opacity="1" stroke-miterlimit="4"/><path stroke-linecap="butt" transform="matrix(0.749432, 0, 0, 0.748998, 108.717338, 14.036172)" fill-opacity="1" fill="#ffffff" fill-rule="evenodd" stroke-linejoin="miter" d="M 59.343684 177.840481 C 56.325774 187.900801 67.594722 184.547361 78.868882 187.718265 C 90.143043 190.894385 99.00913 198.446144 101.422415 191.259456 C 103.8357 184.072768 92.426021 175.42058 83.247197 173.569148 C 74.073585 171.717715 61.80388 169.438628 59.343684 177.840481 Z M 59.343684 177.840481 " stroke="#000000" stroke-width="3.79" stroke-opacity="1" stroke-miterlimit="4"/><path fill="#ffffff" d="M 121.222656 288.140625 C 131.71875 225.09375 146.710938 185.640625 152.644531 171.070312 C 158.066406 155.847656 144.738281 211.414062 142.011719 219.519531 Z M 121.222656 288.140625 " fill-opacity="0.5412" fill-rule="evenodd"/><path fill="#ffffff" d="M 164.050781 139.5 C 171.769531 93.316406 187.070312 57.964844 191.472656 52.128906 C 195.878906 46.296875 189.230469 73.328125 189.230469 73.328125 L 164.050781 139.503906 Z M 164.050781 139.5 " fill-opacity="0.5412" fill-rule="evenodd"/><path fill="#ff3131" d="M 333.507812 211.375 C 331.566406 211.214844 329.585938 211.28125 327.636719 211.261719 C 312.582031 210.992188 297.5625 211.007812 282.503906 211.371094 C 253.128906 212.195312 223.15625 212.871094 194.230469 218.535156 C 193.238281 218.765625 187.121094 219.507812 186.585938 220.894531 C 186.277344 221.6875 188.398438 220.105469 188.5625 219.269531 C 188.746094 218.339844 186.664062 216.539062 187.613281 216.589844 C 197.042969 217.117188 207.195312 220.152344 216.609375 221.449219 C 261.851562 227.457031 307.867188 230.199219 352.765625 238.417969 C 405.429688 250.554688 328.359375 261.371094 317.980469 262.285156 C 284.722656 264.796875 249.734375 263.082031 216.925781 269.550781 C 216.398438 269.710938 216.972656 265.316406 221.316406 267.453125 C 229.882812 271.660156 238.761719 275.257812 247.488281 279.113281 C 254.5 282.257812 282.171875 290.878906 278.871094 302.15625 C 271.636719 311.25 252.984375 310.238281 242.542969 310.785156 C 229.296875 311.355469 216.042969 311.398438 202.789062 311.464844 C 197.191406 311.515625 191.570312 311.523438 186.003906 312.160156 C 181.480469 312.710938 176.992188 313.148438 172.445312 313.410156 C 167.601562 313.6875 162.757812 314.085938 157.933594 314.582031 C 153.707031 315.078125 149.507812 315.707031 145.261719 316.003906 C 141.894531 316.203125 138.535156 316.492188 135.164062 316.621094 C 132.097656 316.71875 129.03125 316.691406 125.960938 316.648438 C 123.390625 316.613281 120.820312 316.53125 118.257812 316.8125 L 116.320312 308.902344 C 119.625 308.589844 122.914062 308.605469 126.230469 308.652344 C 128.96875 308.6875 131.707031 308.710938 134.445312 308.632812 C 137.621094 308.523438 140.785156 308.257812 143.957031 308.089844 C 147.996094 307.835938 151.992188 307.207031 156.011719 306.765625 C 161.097656 306.277344 166.191406 305.871094 171.289062 305.558594 C 175.519531 305.300781 179.695312 304.828125 183.90625 304.339844 C 190.199219 303.683594 196.535156 303.757812 202.855469 303.808594 C 215.75 303.964844 228.640625 304.089844 241.527344 303.472656 C 248.382812 303.058594 255.34375 302.636719 262.074219 301.207031 C 262.574219 301.101562 266.9375 299.652344 267.027344 300.070312 C 268.253906 302.371094 263.429688 296.207031 261.214844 294.824219 C 254.910156 290.890625 248.066406 287.832031 241.316406 284.757812 C 237.613281 283.117188 187.59375 266.640625 214.261719 262.269531 C 248.175781 258.527344 282.574219 259.4375 316.589844 256.4375 C 322.808594 255.78125 377.773438 252.828125 349.628906 244.625 C 305.710938 234.582031 259.554688 232.105469 214.828125 227.453125 C 206.410156 226.589844 147.824219 219.441406 191.277344 211.664062 C 221.207031 207.042969 251.746094 206.113281 281.964844 204.792969 C 297.1875 204.148438 312.40625 203.601562 327.640625 203.328125 C 329.585938 203.308594 331.566406 203.375 333.511719 203.214844 L 333.511719 211.375 Z M 333.507812 211.375 " fill-opacity="0.749" fill-rule="nonzero"/><path fill="#000000" d="M 115.21875 301.425781 C 112.304688 318.4375 116.742188 320.738281 125.851562 304.675781 C 121.746094 304.34375 116.769531 302.324219 115.21875 301.425781 Z M 115.21875 301.425781 " fill-opacity="1" fill-rule="evenodd"/><g clip-path="url(#a5381fcb2a)"><path stroke-linecap="butt" transform="matrix(0.749432, 0, 0, 0.748998, 108.717338, 14.036172)" fill="none" stroke-linejoin="miter" d="M 8.675117 383.698927 C 4.786756 406.411573 10.707906 409.483386 22.862941 388.03806 C 17.384835 387.594759 10.744392 384.898447 8.675117 383.698927 Z M 8.675117 383.698927 " stroke="#000000" stroke-width="4.624" stroke-opacity="1" stroke-miterlimit="4"/></g></svg>